HIERARCHY
ROOT hip
{
  OFFSET 0 0 0
  CHANNELS 6 Xposition Yposition Zposition Zrotation Yrotation Xrotation
  JOINT abdomen
  {
    OFFSET 0 20.6881 -0.73152
    CHANNELS 3 Zrotation Xrotation Yrotation
    JOINT chest
    {
      OFFSET 0 11.7043 -0.48768
      CHANNELS 3 Zrotation Xrotation Yrotation
      JOINT neck
      {
        OFFSET 0 22.1894 -2.19456
        CHANNELS 3 Zrotation Xrotation Yrotation
        JOINT head
        {
          OFFSET -0.24384 7.07133 1.2192
          CHANNELS 3 Zrotation Xrotation Yrotation
          JOINT leftEye
          {
            OFFSET 4.14528 8.04674 8.04672
            CHANNELS 3 Zrotation Xrotation Yrotation
            End Site
            {
              OFFSET 1 0 0
            }
          }
          JOINT rightEye
          {
            OFFSET -3.6576 8.04674 8.04672
            CHANNELS 3 Zrotation Xrotation Yrotation
            End Site
            {
              OFFSET 1 0 0
            }
          }
        }
      }
      JOINT rCollar
      {
        OFFSET -2.68224 19.2634 -4.8768
        CHANNELS 3 Zrotation Xrotation Yrotation
        JOINT rShldr
        {
          OFFSET -8.77824 -1.95073 1.46304
          CHANNELS 3 Zrotation Xrotation Yrotation
          JOINT rForeArm
          {
            OFFSET -28.1742 -1.7115 0.48768
            CHANNELS 3 Zrotation Xrotation Yrotation
            JOINT rHand
            {
              OFFSET -22.5879 0.773209 7.07136
              CHANNELS 3 Zrotation Xrotation Yrotation
              JOINT rThumb1
              {
                OFFSET -1.2192 -0.487915 3.41376
                CHANNELS 3 Zrotation Xrotation Yrotation
                JOINT rThumb2
                {
                  OFFSET -3.37035 -0.52449 3.41376
                  CHANNELS 3 Zrotation Xrotation Yrotation
                  End Site
                  {
                    OFFSET -1.78271 -1.18214 1.43049
                  }
                }
              }
              JOINT rIndex1
              {
                OFFSET -7.75947 0.938293 5.60832
                CHANNELS 3 Zrotation Xrotation Yrotation
                JOINT rIndex2
                {
                  OFFSET -2.54057 -0.884171 1.56538
                  CHANNELS 3 Zrotation Xrotation Yrotation
                  End Site
                  {
                    OFFSET -1.62519 -0.234802 1.16502
                  }
                }
              }
              JOINT rMid1
              {
                OFFSET -8.24714 1.18213 3.41376
                CHANNELS 3 Zrotation Xrotation Yrotation
                JOINT rMid2
                {
                  OFFSET -3.10165 -0.590103 1.0647
                  CHANNELS 3 Zrotation Xrotation Yrotation
                  End Site
                  {
                    OFFSET -2.48547 -0.328903 0.83742
                  }
                }
              }
              JOINT rRing1
              {
                OFFSET -8.82822 0.546677 1.51678
                CHANNELS 3 Zrotation Xrotation Yrotation
                JOINT rRing2
                {
                  OFFSET -2.60934 -0.819778 -0.0198488
                  CHANNELS 3 Zrotation Xrotation Yrotation
                  End Site
                  {
                    OFFSET -2.33842 -0.294052 0.168128
                  }
                }
              }
              JOINT rPinky1
              {
                OFFSET -8.27202 -0.0477905 -0.4584
                CHANNELS 3 Zrotation Xrotation Yrotation
                JOINT rPinky2
                {
                  OFFSET -1.82734 -0.647385 -0.700984
                  CHANNELS 3 Zrotation Xrotation Yrotation
                  End Site
                  {
                    OFFSET -1.69225 -0.51767 -0.607171
                  }
                }
              }
            }
          }
        }
      }
      JOINT lCollar
      {
        OFFSET 2.68224 19.2634 -4.8768
        CHANNELS 3 Zrotation Xrotation Yrotation
        JOINT lShldr
        {
          OFFSET 8.77824 -1.95073 1.46304
          CHANNELS 3 Zrotation Xrotation Yrotation
          JOINT lForeArm
          {
            OFFSET 28.1742 -1.7115 0.48768
            CHANNELS 3 Zrotation Xrotation Yrotation
            JOINT lHand
            {
              OFFSET 22.5879 0.773209 7.07136
              CHANNELS 3 Zrotation Xrotation Yrotation
              JOINT lThumb1
              {
                OFFSET 1.2192 -0.487915 3.41376
                CHANNELS 3 Zrotation Xrotation Yrotation
                JOINT lThumb2
                {
                  OFFSET 3.37035 -0.52449 3.41376
                  CHANNELS 3 Zrotation Xrotation Yrotation
                  End Site
                  {
                    OFFSET 1.78271 -1.18214 1.43049
                  }
                }
              }
              JOINT lIndex1
              {
                OFFSET 7.75947 0.938293 5.60832
                CHANNELS 3 Zrotation Xrotation Yrotation
                JOINT lIndex2
                {
                  OFFSET 2.54057 -0.884171 1.56538
                  CHANNELS 3 Zrotation Xrotation Yrotation
                  End Site
                  {
                    OFFSET 1.62519 -0.234802 1.16502
                  }
                }
              }
              JOINT lMid1
              {
                OFFSET 8.24714 1.18213 3.41376
                CHANNELS 3 Zrotation Xrotation Yrotation
                JOINT lMid2
                {
                  OFFSET 3.10165 -0.590103 1.0647
                  CHANNELS 3 Zrotation Xrotation Yrotation
                  End Site
                  {
                    OFFSET 2.48547 -0.328903 0.83742
                  }
                }
              }
              JOINT lRing1
              {
                OFFSET 8.82822 0.546677 1.51678
                CHANNELS 3 Zrotation Xrotation Yrotation
                JOINT lRing2
                {
                  OFFSET 2.60934 -0.819778 -0.0198488
                  CHANNELS 3 Zrotation Xrotation Yrotation
                  End Site
                  {
                    OFFSET 2.33842 -0.294052 0.168128
                  }
                }
              }
              JOINT lPinky1
              {
                OFFSET 8.27202 -0.0477905 -0.4584
                CHANNELS 3 Zrotation Xrotation Yrotation
                JOINT lPinky2
                {
                  OFFSET 1.82734 -0.647385 -0.700984
                  CHANNELS 3 Zrotation Xrotation Yrotation
                  End Site
                  {
                    OFFSET 1.69225 -0.51767 -0.607171
                  }
                }
              }
            }
          }
        }
      }
    }
  }
  JOINT rButtock
  {
    OFFSET -8.77824 4.35084 1.2192
    CHANNELS 3 Zrotation Xrotation Yrotation
    JOINT rThigh
    {
      OFFSET 0 -1.70687 -2.19456
      CHANNELS 3 Zrotation Xrotation Yrotation
      JOINT rShin
      {
        OFFSET 0 -36.8199 0.73152
        CHANNELS 3 Zrotation Xrotation Yrotation
        JOINT rFoot
        {
          OFFSET 0.73152 -45.1104 -5.12064
          CHANNELS 3 Zrotation Xrotation Yrotation
          End Site
          {
            OFFSET -1.1221 -3.69964 12.103
          }
        }
      }
    }
  }
  JOINT lButtock
  {
    OFFSET 8.77824 4.35084 1.2192
    CHANNELS 3 Zrotation Xrotation Yrotation
    JOINT lThigh
    {
      OFFSET 0 -1.70687 -2.19456
      CHANNELS 3 Zrotation Xrotation Yrotation
      JOINT lShin
      {
        OFFSET 0 -36.8199 0.73152
        CHANNELS 3 Zrotation Xrotation Yrotation
        JOINT lFoot
        {
          OFFSET -0.73152 -45.1104 -5.12064
          CHANNELS 3 Zrotation Xrotation Yrotation
          End Site
          {
            OFFSET 1.1221 -3.69964 12.103
          }
        }
      }
    }
  }
}
MOTION
Frames:	4
Frame Time:	0.03333
-2.557939968435199 60.41018868025723 -113.09160748943862 -158.07302856445312 -82.2406005859375 173.25567626953125 -0.13020005822181702 20.912612915039062 -0.49709251523017883 1.032642126083374 -12.786012649536133 -1.2475214004516602 -3.1833603382110596 9.233114242553711 1.8632688522338867 2.2999801635742188 -24.046966552734375 3.7885820865631104 0.2194405347108841 -0.47199365496635437 0.5683473348617554 -0.3188900947570801 -0.3338289260864258 -0.2226782888174057 0.05562152713537216 -0.13924628496170044 0.20469246804714203 -25.171619415283203 19.744869232177734 91.21917724609375 -25.421785354614258 -45.52804946899414 97.07347869873047 -4.086828231811523 -45.269161224365234 -9.09416389465332 0.028430908918380737 -0.04461907595396042 -0.14894187450408936 -0.2703564763069153 -0.037818361073732376 0.0857953205704689 0.18048153817653656 0.24089951813220978 0.1674194633960724 7.558842182159424 5.627866268157959 0.36610957980155945 -0.2010643482208252 0.18829241394996643 0.09899881482124329 3.2586708068847656 0.5050307512283325 0.4032195210456848 -0.2999245524406433 0.5518995523452759 0.07309132069349289 9.779914855957031 0.752570390701294 -0.00592212425544858 -0.4033990800380707 0.08378314971923828 0.020594624802470207 2.2765755653381348 -0.7424716949462891 -0.20603053271770477 0.46339359879493713 -0.11596892774105072 -0.2656632661819458 25.383848190307617 47.6279411315918 -79.73677825927734 25.796476364135742 -36.272586822509766 -81.9714584350586 6.216610431671143 -55.90336227416992 11.682371139526367 -0.0691073089838028 0.331369012594223 0.23534363508224487 -0.7826874256134033 -0.1565200239419937 -0.05962592735886574 0.06629573553800583 -0.2136031687259674 0.13147953152656555 -7.949020862579346 5.820963382720947 -0.42840665578842163 -0.5050233602523804 -0.11225971579551697 -0.0965135395526886 -2.7525665760040283 0.9712408781051636 -0.6971593499183655 0.023480147123336792 0.009760228917002678 -0.12277594208717346 -9.98542308807373 0.7868556976318359 -0.01583903469145298 -0.15358701348304749 0.058852408081293106 0.11663607507944107 -2.181924343109131 -0.8755087852478027 -0.036968477070331573 0.07688620686531067 -0.07543986290693283 -0.5182868242263794 -42.20026779174805 -53.04466247558594 -27.49180793762207 -11.530957221984863 83.32711029052734 11.145341873168945 -1.3278007507324219 -22.06755256652832 0.6349339485168457 -0.09567169100046158 0.1404968798160553 0.36121878027915955 51.503875732421875 -46.015296936035156 35.44853210449219 15.751288414001465 87.08159637451172 -16.09954071044922 4.787223815917969 -20.631187438964844 6.491785526275635
-3.160010791766362 60.77190183832276 -113.01331297762191 -166.0851287841797 -81.76646423339844 171.69383239746094 -0.45313966274261475 21.403026580810547 -0.6232380270957947 0.8094235062599182 -13.202863693237305 -1.1747864484786987 -2.352449655532837 9.037728309631348 2.2489285469055176 1.3287111520767212 -23.2873592376709 4.147790908813477 0.4772551357746124 -0.5026395916938782 0.6490401029586792 -0.17338255047798157 -0.37333232164382935 0.06969642639160156 0.4277774691581726 -0.29511815309524536 0.4746786952018738 -28.236730575561523 20.76410484313965 93.84373474121094 -23.609283447265625 -48.32765197753906 103.88375854492188 -3.5244522094726562 -43.206390380859375 -8.256909370422363 -0.010072152130305767 -0.004067938309162855 -0.33158403635025024 -0.2656499743461609 -0.0744217038154602 0.13271832466125488 0.3606908917427063 0.16712962090969086 0.1541125476360321 7.674773693084717 5.741581439971924 0.4553154706954956 -0.37464454770088196 0.19772784411907196 0.0108948340639472 3.172532081604004 0.22816993296146393 0.2752607464790344 -0.28627660870552063 0.45107507705688477 -0.0162319615483284 10.002955436706543 0.9223029613494873 -0.02676071785390377 -0.5961114168167114 0.398932546377182 -0.07978346943855286 2.397608995437622 -0.6975618600845337 -0.17366081476211548 0.562995970249176 -0.25133395195007324 -0.2663883566856384 24.459016799926758 48.35186767578125 -78.73054504394531 26.629070281982422 -33.90589904785156 -76.71245574951172 7.0081000328063965 -58.02894592285156 12.390329360961914 -0.1235867515206337 0.30566567182540894 0.34182605147361755 -0.7943979501724243 -0.0635097548365593 0.007182781584560871 0.259721040725708 -0.30170953273773193 0.16392873227596283 -8.10011100769043 5.677095413208008 -0.5845139026641846 -0.5221420526504517 -0.05360414460301399 -0.07217691838741302 -2.6825220584869385 1.0232256650924683 -0.7571969032287598 -0.14991401135921478 -0.1540718972682953 -0.3146442770957947 -9.732833862304688 0.7242811918258667 -0.060514867305755615 0.11110332608222961 -0.17040161788463593 0.06769320368766785 -2.0915367603302 -0.8273521065711975 0.0314277820289135 0.1267888993024826 -0.06891395151615143 -0.6395096182823181 -41.92184066772461 -54.427772521972656 -26.557727813720703 -10.052209854125977 83.69062042236328 9.362732887268066 -0.3694048821926117 -22.14109230041504 1.6902130842208862 0.04516720399260521 0.17805863916873932 0.2672716975212097 50.79917526245117 -44.56944274902344 34.23442840576172 13.747357368469238 85.76875305175781 -14.568275451660156 5.420670986175537 -20.800365447998047 8.493175506591797
-3.5901456900076174 61.33221640688476 -112.84863909108446 -169.00177001953125 -80.42401885986328 168.10708618164062 -0.1885187327861786 21.306808471679688 -1.095423698425293 0.6895970702171326 -13.635735511779785 -0.8951717615127563 -1.968673825263977 8.735124588012695 2.447179079055786 0.9043208956718445 -23.105051040649414 4.026116847991943 0.554953932762146 -0.43815991282463074 0.6661947965621948 0.020528102293610573 -0.36108869314193726 0.29277467727661133 0.5298599600791931 -0.3445974588394165 0.5468111634254456 -30.604686737060547 22.08282470703125 95.47686767578125 -21.833343505859375 -50.61861801147461 109.25821685791016 -3.0113632678985596 -41.589786529541016 -7.562239646911621 -0.04199352115392685 -0.054792389273643494 -0.3923228681087494 -0.30371513962745667 -0.0914231538772583 0.13995815813541412 0.506125807762146 0.03823435679078102 0.07129854708909988 7.652081489562988 5.670932292938232 0.5660247206687927 -0.430122047662735 0.04653281718492508 -0.09800569713115692 3.1231698989868164 0.07373636960983276 0.05465972423553467 -0.22977228462696075 0.32868632674217224 -0.018044419586658478 10.200868606567383 1.0215784311294556 -0.06707294285297394 -0.6800235509872437 0.47613099217414856 -0.11321152746677399 2.5015342235565186 -0.6298961639404297 -0.16083014011383057 0.5132739543914795 -0.24713684618473053 -0.14359241724014282 22.433591842651367 47.09793472290039 -76.91999053955078 27.002161026000977 -32.61484909057617 -73.62670135498047 9.52224349975586 -62.51455307006836 14.940864562988281 -0.2296169102191925 0.37619391083717346 0.3540704846382141 -0.5503497123718262 -0.024820011109113693 -0.031204253435134888 0.2692953050136566 -0.36415839195251465 0.12996415793895721 -8.023085594177246 5.4949212074279785 -0.6715936660766602 -0.4076620638370514 0.14221009612083435 -0.01697581261396408 -2.6537444591522217 1.0052125453948975 -0.6507364511489868 -0.3097294270992279 -0.17983916401863098 -0.4530385434627533 -9.562658309936523 0.5594484210014343 -0.1506882905960083 0.289749413728714 -0.18374982476234436 0.08443303406238556 -1.9979286193847656 -0.8104106783866882 0.19898556172847748 0.15903158485889435 -0.06425051391124725 -0.6137616038322449 -42.002113342285156 -54.49434280395508 -26.917163848876953 -8.841175079345703 84.72466278076172 8.108564376831055 -0.14186958968639374 -22.472768783569336 1.7647570371627808 0.10115894675254822 0.1622440218925476 0.16964372992515564 50.083763122558594 -43.46430587768555 34.00373077392578 14.330106735229492 84.97522735595703 -15.242925643920898 5.910606384277344 -21.13460350036621 9.992177963256836
-3.87840523283069 61.56901223521993 -112.75729582302355 -168.4473114013672 -78.60243225097656 163.3188018798828 0.7048125863075256 20.75486183166504 -1.936273217201233 0.7569987177848816 -13.831275939941406 -0.513241708278656 -2.0237622261047363 8.415695190429688 2.3480024337768555 1.103665828704834 -23.21107292175293 3.7044942378997803 0.4391067922115326 -0.18545012176036835 0.5846943259239197 0.22911618649959564 -0.36769407987594604 0.38806989789009094 0.4148291349411011 -0.2914872467517853 0.35451340675354004 -32.16693878173828 23.743785858154297 94.94567108154297 -20.353776931762695 -52.70876693725586 113.39289093017578 -2.4431583881378174 -39.723228454589844 -6.991048336029053 -0.00905567780137062 -0.14999623596668243 -0.22705210745334625 -0.3560865819454193 -0.14962448179721832 0.07475541532039642 0.55196613073349 -0.06623943150043488 -0.04665985330939293 7.483561038970947 5.4454498291015625 0.6371808648109436 -0.40331101417541504 -0.24921895563602448 -0.1651609092950821 3.088608503341675 0.15867188572883606 -0.15536709129810333 -0.1286793202161789 0.1786218136548996 0.1113612949848175 10.405072212219238 1.032845139503479 -0.11902888864278793 -0.6041386127471924 0.3093607425689697 -0.03528113663196564 2.522231340408325 -0.545656681060791 -0.2517033815383911 0.3033319413661957 -0.07426531612873077 0.08188936859369278 20.253448486328125 45.661590576171875 -74.98819732666016 27.03656578063965 -31.25619125366211 -70.8221664428711 15.471315383911133 -69.21431732177734 21.149404525756836 -0.3217002749443054 0.5005796551704407 0.09749560803174973 -0.30210772156715393 -0.021513784304261208 -0.16264097392559052 0.105483777821064 -0.4267321825027466 0.04719526693224907 -7.744997024536133 5.350135803222656 -0.6893709897994995 -0.24192878603935242 0.3653141260147095 0.033059798181056976 -2.7483160495758057 0.9718577861785889 -0.38859260082244873 -0.3402805030345917 -0.08692365139722824 -0.5730865001678467 -9.601665496826172 0.35700565576553345 -0.2230350822210312 0.3687521517276764 -0.043955639004707336 0.1792512685060501 -1.9339287281036377 -0.8300348520278931 0.4372413456439972 0.1498197764158249 -0.12102963775396347 -0.3877948820590973 -41.12532424926758 -53.33619689941406 -26.464550018310547 -6.41407585144043 84.83900451660156 5.688939571380615 -0.249123215675354 -23.195411682128906 1.298957347869873 -0.009428243152797222 0.05657118186354637 0.044353317469358444 49.658050537109375 -43.773834228515625 34.164852142333984 16.24272346496582 84.69710540771484 -16.943256378173828 5.8944010734558105 -21.341032028198242 10.367681503295898
